<svg xmlns="http://www.w3.org/2000/svg" xmlns:xlink="http://www.w3.org/1999/xlink" width="500" zoomAndPan="magnify" viewBox="0 0 375 374.999991" height="500" preserveAspectRatio="xMidYMid meet" version="1.2"><defs><clipPath id="660822bacf"><path d="M 140.421875 101.433594 L 234.921875 101.433594 L 234.921875 141 L 140.421875 141 Z M 140.421875 101.433594 "/></clipPath><clipPath id="596bc5b017"><path d="M 140.421875 148 L 234.921875 148 L 234.921875 195.933594 L 140.421875 195.933594 Z M 140.421875 148 "/></clipPath></defs><g id="e7af0cfc22"><rect x="0" width="375" y="0" height="374.999991" style="fill:#ffffff;fill-opacity:1;stroke:none;"/><rect x="0" width="375" y="0" height="374.999991" style="fill:#eb5a3c;fill-opacity:1;stroke:none;"/><g clip-rule="nonzero" clip-path="url(#660822bacf)"><path style=" stroke:none;fill-rule:nonzero;fill:#edf4c2;fill-opacity:1;" d="M 187.496094 101.433594 L 140.421875 132.816406 L 140.421875 140.660156 L 234.570312 140.660156 L 234.570312 132.816406 Z M 187.496094 128.890625 C 184.246094 128.890625 181.609375 126.261719 181.609375 123.007812 C 181.609375 119.753906 184.246094 117.121094 187.496094 117.121094 C 190.746094 117.121094 193.378906 119.753906 193.378906 123.007812 C 193.378906 126.261719 190.746094 128.890625 187.496094 128.890625 Z M 187.496094 128.890625 "/></g><g clip-rule="nonzero" clip-path="url(#596bc5b017)"><path style=" stroke:none;fill-rule:nonzero;fill:#edf4c2;fill-opacity:1;" d="M 226.722656 187.734375 L 226.722656 148.507812 L 218.878906 148.507812 L 218.878906 187.734375 L 211.03125 187.734375 L 211.03125 148.507812 L 163.957031 148.507812 L 163.957031 187.734375 L 156.113281 187.734375 L 156.113281 148.507812 L 148.265625 148.507812 L 148.265625 187.734375 L 140.421875 187.734375 L 140.421875 195.582031 L 179.648438 195.582031 L 179.648438 172.042969 L 195.339844 172.042969 L 195.339844 195.582031 L 234.570312 195.582031 L 234.570312 187.734375 Z M 226.722656 187.734375 "/></g><g style="fill:#edf4c2;fill-opacity:1;"><g transform="translate(100.232335, 231.085516)"><path style="stroke:none" d="M 2.875 -25.203125 L 9.1875 -25.203125 L 14.9375 -14.765625 C 15.34375 -14.015625 15.644531 -13.40625 15.84375 -12.9375 C 16.050781 -12.46875 16.21875 -12.101562 16.34375 -11.84375 C 16.46875 -11.53125 16.539062 -11.300781 16.5625 -11.15625 L 16.921875 -11.15625 C 16.941406 -11.300781 17.015625 -11.53125 17.140625 -11.84375 C 17.253906 -12.101562 17.410156 -12.46875 17.609375 -12.9375 C 17.816406 -13.40625 18.128906 -14.015625 18.546875 -14.765625 L 24.296875 -25.203125 L 30.59375 -25.203125 L 30.59375 0 L 25.5625 0 L 25.5625 -13.6875 C 25.5625 -14.476562 25.578125 -15.128906 25.609375 -15.640625 C 25.648438 -16.160156 25.691406 -16.585938 25.734375 -16.921875 C 25.785156 -17.304688 25.847656 -17.601562 25.921875 -17.8125 L 25.5625 -17.8125 C 25.46875 -17.601562 25.320312 -17.304688 25.125 -16.921875 C 24.957031 -16.585938 24.734375 -16.160156 24.453125 -15.640625 C 24.179688 -15.128906 23.832031 -14.476562 23.40625 -13.6875 L 18.546875 -4.9375 L 14.9375 -4.9375 L 10.078125 -13.6875 C 9.617188 -14.476562 9.257812 -15.128906 9 -15.640625 C 8.738281 -16.160156 8.523438 -16.585938 8.359375 -16.921875 C 8.160156 -17.304688 8.015625 -17.601562 7.921875 -17.8125 L 7.5625 -17.8125 C 7.601562 -17.601562 7.660156 -17.304688 7.734375 -16.921875 C 7.785156 -16.585938 7.828125 -16.160156 7.859375 -15.640625 C 7.898438 -15.128906 7.921875 -14.476562 7.921875 -13.6875 L 7.921875 0 L 2.875 0 Z M 2.875 -25.203125 "/></g></g><g style="fill:#edf4c2;fill-opacity:1;"><g transform="translate(132.632411, 231.085516)"><path style="stroke:none" d="M 13.25 0.546875 C 11.664062 0.546875 10.238281 0.300781 8.96875 -0.1875 C 7.695312 -0.6875 6.609375 -1.40625 5.703125 -2.34375 C 4.804688 -3.28125 4.109375 -4.429688 3.609375 -5.796875 C 3.117188 -7.160156 2.875 -8.707031 2.875 -10.4375 L 2.875 -25.203125 L 7.921875 -25.203125 L 7.921875 -10.4375 C 7.921875 -8.226562 8.398438 -6.59375 9.359375 -5.53125 C 10.316406 -4.476562 11.613281 -3.953125 13.25 -3.953125 C 14.882812 -3.953125 16.175781 -4.476562 17.125 -5.53125 C 18.070312 -6.59375 18.546875 -8.226562 18.546875 -10.4375 L 18.546875 -25.203125 L 23.578125 -25.203125 L 23.578125 -10.4375 C 23.578125 -8.707031 23.335938 -7.160156 22.859375 -5.796875 C 22.378906 -4.429688 21.6875 -3.28125 20.78125 -2.34375 C 19.882812 -1.40625 18.800781 -0.6875 17.53125 -0.1875 C 16.257812 0.300781 14.832031 0.546875 13.25 0.546875 Z M 13.25 0.546875 "/></g></g><g style="fill:#edf4c2;fill-opacity:1;"><g transform="translate(158.012476, 231.085516)"><path style="stroke:none" d="M 10.625 0.546875 C 9.007812 0.546875 7.585938 0.316406 6.359375 -0.140625 C 5.140625 -0.597656 4.113281 -1.101562 3.28125 -1.65625 C 2.289062 -2.300781 1.4375 -3.046875 0.71875 -3.890625 L 3.421875 -7.3125 C 3.953125 -6.664062 4.5625 -6.097656 5.25 -5.609375 C 5.851562 -5.203125 6.566406 -4.820312 7.390625 -4.46875 C 8.222656 -4.125 9.179688 -3.953125 10.265625 -3.953125 C 11.773438 -3.953125 12.890625 -4.273438 13.609375 -4.921875 C 14.328125 -5.578125 14.6875 -6.394531 14.6875 -7.375 C 14.6875 -8.09375 14.367188 -8.660156 13.734375 -9.078125 C 13.097656 -9.503906 12.300781 -9.882812 11.34375 -10.21875 C 10.382812 -10.5625 9.351562 -10.910156 8.25 -11.265625 C 7.144531 -11.628906 6.109375 -12.09375 5.140625 -12.65625 C 4.179688 -13.21875 3.382812 -13.941406 2.75 -14.828125 C 2.113281 -15.710938 1.796875 -16.863281 1.796875 -18.28125 C 1.796875 -19.289062 2.003906 -20.242188 2.421875 -21.140625 C 2.847656 -22.046875 3.441406 -22.835938 4.203125 -23.515625 C 4.972656 -24.203125 5.914062 -24.742188 7.03125 -25.140625 C 8.15625 -25.535156 9.410156 -25.734375 10.796875 -25.734375 C 12.210938 -25.734375 13.472656 -25.550781 14.578125 -25.1875 C 15.679688 -24.832031 16.601562 -24.347656 17.34375 -23.734375 C 18.09375 -23.128906 18.660156 -22.421875 19.046875 -21.609375 C 19.429688 -20.804688 19.625 -19.960938 19.625 -19.078125 C 19.625 -18.785156 19.601562 -18.507812 19.5625 -18.25 C 19.53125 -17.988281 19.488281 -17.757812 19.4375 -17.5625 C 19.363281 -17.320312 19.304688 -17.109375 19.265625 -16.921875 L 14.21875 -16.921875 C 14.269531 -17.035156 14.316406 -17.164062 14.359375 -17.3125 C 14.410156 -17.4375 14.445312 -17.582031 14.46875 -17.75 C 14.5 -17.914062 14.515625 -18.09375 14.515625 -18.28125 C 14.515625 -19.175781 14.203125 -19.90625 13.578125 -20.46875 C 12.953125 -21.03125 12.023438 -21.3125 10.796875 -21.3125 C 9.671875 -21.3125 8.773438 -21.003906 8.109375 -20.390625 C 7.453125 -19.773438 7.125 -19.070312 7.125 -18.28125 C 7.125 -17.5625 7.441406 -16.984375 8.078125 -16.546875 C 8.710938 -16.117188 9.503906 -15.738281 10.453125 -15.40625 C 11.398438 -15.070312 12.429688 -14.726562 13.546875 -14.375 C 14.671875 -14.03125 15.707031 -13.578125 16.65625 -13.015625 C 17.601562 -12.453125 18.394531 -11.722656 19.03125 -10.828125 C 19.664062 -9.941406 19.984375 -8.789062 19.984375 -7.375 C 19.984375 -6.25 19.769531 -5.207031 19.34375 -4.25 C 18.925781 -3.289062 18.320312 -2.457031 17.53125 -1.75 C 16.738281 -1.039062 15.757812 -0.476562 14.59375 -0.0625 C 13.4375 0.34375 12.113281 0.546875 10.625 0.546875 Z M 10.625 0.546875 "/></g></g><g style="fill:#edf4c2;fill-opacity:1;"><g transform="translate(178.532532, 231.085516)"><path style="stroke:none" d="M 2.875 -25.203125 L 19.625 -25.203125 L 19.625 -20.703125 L 7.921875 -20.703125 L 7.921875 -14.90625 L 17.5625 -14.90625 L 17.5625 -10.40625 L 7.921875 -10.40625 L 7.921875 -4.5 L 19.625 -4.5 L 19.625 0 L 2.875 0 Z M 2.875 -25.203125 "/></g></g><g style="fill:#edf4c2;fill-opacity:1;"><g transform="translate(198.332583, 231.085516)"><path style="stroke:none" d="M 7.984375 -20.703125 L 0.71875 -20.703125 L 0.71875 -25.203125 L 20.34375 -25.203125 L 20.34375 -20.703125 L 13.03125 -20.703125 L 13.03125 0 L 7.984375 0 Z M 7.984375 -20.703125 "/></g></g><g style="fill:#edf4c2;fill-opacity:1;"><g transform="translate(218.312639, 231.085516)"><path style="stroke:none" d="M 21.171875 0.4375 C 19.628906 0.4375 18.4375 0.09375 17.59375 -0.59375 C 16.757812 -1.28125 16.09375 -2.1875 15.59375 -3.3125 L 14.046875 -6.703125 C 13.773438 -7.253906 13.441406 -7.691406 13.046875 -8.015625 C 12.648438 -8.335938 12.140625 -8.5 11.515625 -8.5 L 7.921875 -8.5 L 7.921875 0 L 2.875 0 L 2.875 -25.203125 L 11.984375 -25.203125 C 13.710938 -25.203125 15.210938 -25.007812 16.484375 -24.625 C 17.753906 -24.238281 18.8125 -23.691406 19.65625 -22.984375 C 20.5 -22.273438 21.125 -21.421875 21.53125 -20.421875 C 21.9375 -19.429688 22.140625 -18.320312 22.140625 -17.09375 C 22.140625 -16.351562 22.0625 -15.6875 21.90625 -15.09375 C 21.75 -14.507812 21.546875 -13.992188 21.296875 -13.546875 C 21.046875 -13.109375 20.753906 -12.71875 20.421875 -12.375 C 20.097656 -12.039062 19.769531 -11.753906 19.4375 -11.515625 C 18.644531 -10.960938 17.742188 -10.59375 16.734375 -10.40625 L 16.734375 -10.15625 C 17.046875 -10.03125 17.335938 -9.875 17.609375 -9.6875 C 17.847656 -9.519531 18.09375 -9.289062 18.34375 -9 C 18.59375 -8.707031 18.816406 -8.359375 19.015625 -7.953125 L 19.9375 -5.796875 C 20.15625 -5.296875 20.460938 -4.875 20.859375 -4.53125 C 21.253906 -4.195312 21.800781 -4.03125 22.5 -4.03125 C 22.664062 -4.03125 22.820312 -4.03125 22.96875 -4.03125 C 23.113281 -4.03125 23.242188 -4.039062 23.359375 -4.0625 C 23.484375 -4.09375 23.59375 -4.117188 23.6875 -4.140625 L 23.6875 0 C 23.445312 0.0703125 23.195312 0.144531 22.9375 0.21875 C 22.695312 0.257812 22.425781 0.304688 22.125 0.359375 C 21.820312 0.410156 21.503906 0.4375 21.171875 0.4375 Z M 11.984375 -13 C 13.710938 -13 14.953125 -13.332031 15.703125 -14 C 16.460938 -14.675781 16.84375 -15.625 16.84375 -16.84375 C 16.84375 -18.039062 16.460938 -18.984375 15.703125 -19.671875 C 14.953125 -20.359375 13.710938 -20.703125 11.984375 -20.703125 L 7.921875 -20.703125 L 7.921875 -13 Z M 11.984375 -13 "/></g></g><g style="fill:#edf4c2;fill-opacity:1;"><g transform="translate(241.460694, 231.085516)"><path style="stroke:none" d="M 2.875 -25.203125 L 7.921875 -25.203125 L 7.921875 0 L 2.875 0 Z M 2.875 -25.203125 "/></g></g><g style="fill:#edf4c2;fill-opacity:1;"><g transform="translate(251.180721, 231.085516)"><path style="stroke:none" d="M 2.875 -25.203125 L 11.625 -25.203125 C 13.425781 -25.203125 14.984375 -24.992188 16.296875 -24.578125 C 17.617188 -24.171875 18.710938 -23.597656 19.578125 -22.859375 C 20.441406 -22.117188 21.082031 -21.210938 21.5 -20.140625 C 21.925781 -19.078125 22.140625 -17.882812 22.140625 -16.5625 C 22.140625 -15.238281 21.925781 -14.039062 21.5 -12.96875 C 21.082031 -11.90625 20.441406 -11 19.578125 -10.25 C 18.710938 -9.507812 17.617188 -8.941406 16.296875 -8.546875 C 14.984375 -8.148438 13.425781 -7.953125 11.625 -7.953125 L 7.921875 -7.953125 L 7.921875 0 L 2.875 0 Z M 11.703125 -12.453125 C 13.472656 -12.453125 14.769531 -12.820312 15.59375 -13.5625 C 16.425781 -14.3125 16.84375 -15.3125 16.84375 -16.5625 C 16.84375 -17.832031 16.425781 -18.835938 15.59375 -19.578125 C 14.769531 -20.328125 13.472656 -20.703125 11.703125 -20.703125 L 7.921875 -20.703125 L 7.921875 -12.453125 Z M 11.703125 -12.453125 "/></g></g><g style="fill:#edf4c2;fill-opacity:1;"><g transform="translate(155.357332, 265.168123)"><path style="stroke:none" d="M 9.71875 0.546875 C 8.1875 0.546875 6.851562 0.347656 5.71875 -0.046875 C 4.59375 -0.441406 3.660156 -0.882812 2.921875 -1.375 C 2.054688 -1.945312 1.320312 -2.59375 0.71875 -3.3125 L 3.421875 -6.65625 C 3.847656 -6.15625 4.363281 -5.703125 4.96875 -5.296875 C 5.46875 -4.953125 6.078125 -4.632812 6.796875 -4.34375 C 7.523438 -4.0625 8.34375 -3.921875 9.25 -3.921875 C 10.613281 -3.921875 11.675781 -4.285156 12.4375 -5.015625 C 13.195312 -5.753906 13.578125 -6.675781 13.578125 -7.78125 C 13.578125 -8.925781 13.195312 -9.867188 12.4375 -10.609375 C 11.675781 -11.359375 10.613281 -11.734375 9.25 -11.734375 C 8.863281 -11.734375 8.507812 -11.703125 8.1875 -11.640625 C 7.863281 -11.585938 7.582031 -11.535156 7.34375 -11.484375 C 7.050781 -11.410156 6.785156 -11.335938 6.546875 -11.265625 L 5.21875 -14.46875 L 10.078125 -18.90625 C 10.460938 -19.257812 10.785156 -19.550781 11.046875 -19.78125 C 11.316406 -20.007812 11.546875 -20.195312 11.734375 -20.34375 C 11.953125 -20.488281 12.117188 -20.609375 12.234375 -20.703125 L 12.234375 -21.0625 C 12.046875 -20.988281 11.820312 -20.925781 11.5625 -20.875 C 11.320312 -20.832031 11.019531 -20.789062 10.65625 -20.75 C 10.289062 -20.71875 9.859375 -20.703125 9.359375 -20.703125 L 2.234375 -20.703125 L 2.234375 -25.203125 L 18.1875 -25.203125 L 18.1875 -20.953125 L 11.703125 -15.078125 L 11.703125 -14.765625 C 12.660156 -14.765625 13.578125 -14.59375 14.453125 -14.25 C 15.328125 -13.914062 16.09375 -13.441406 16.75 -12.828125 C 17.414062 -12.222656 17.941406 -11.476562 18.328125 -10.59375 C 18.710938 -9.71875 18.90625 -8.726562 18.90625 -7.625 C 18.90625 -6.457031 18.6875 -5.375 18.25 -4.375 C 17.820312 -3.375 17.210938 -2.507812 16.421875 -1.78125 C 15.628906 -1.050781 14.664062 -0.476562 13.53125 -0.0625 C 12.40625 0.34375 11.132812 0.546875 9.71875 0.546875 Z M 9.71875 0.546875 "/></g></g><g style="fill:#edf4c2;fill-opacity:1;"><g transform="translate(174.617382, 265.168123)"><path style="stroke:none" d="M 11.703125 0.546875 C 10.304688 0.546875 9 0.273438 7.78125 -0.265625 C 6.570312 -0.804688 5.523438 -1.625 4.640625 -2.71875 C 3.753906 -3.8125 3.054688 -5.175781 2.546875 -6.8125 C 2.046875 -8.457031 1.796875 -10.382812 1.796875 -12.59375 C 1.796875 -14.78125 2.050781 -16.695312 2.5625 -18.34375 C 3.082031 -19.988281 3.78125 -21.351562 4.65625 -22.4375 C 5.53125 -23.53125 6.550781 -24.351562 7.71875 -24.90625 C 8.882812 -25.457031 10.128906 -25.734375 11.453125 -25.734375 C 12.722656 -25.734375 13.851562 -25.566406 14.84375 -25.234375 C 15.84375 -24.898438 16.679688 -24.457031 17.359375 -23.90625 C 18.046875 -23.351562 18.5625 -22.71875 18.90625 -22 C 19.257812 -21.28125 19.4375 -20.523438 19.4375 -19.734375 C 19.4375 -19.390625 19.414062 -19.09375 19.375 -18.84375 C 19.34375 -18.59375 19.304688 -18.375 19.265625 -18.1875 C 19.191406 -17.9375 19.128906 -17.726562 19.078125 -17.5625 L 14.296875 -17.5625 C 14.335938 -17.707031 14.382812 -17.851562 14.4375 -18 C 14.488281 -18.125 14.523438 -18.273438 14.546875 -18.453125 C 14.566406 -18.628906 14.578125 -18.828125 14.578125 -19.046875 C 14.578125 -19.640625 14.332031 -20.148438 13.84375 -20.578125 C 13.351562 -21.015625 12.640625 -21.234375 11.703125 -21.234375 C 11.128906 -21.234375 10.566406 -21.09375 10.015625 -20.8125 C 9.460938 -20.539062 8.972656 -20.101562 8.546875 -19.5 C 8.128906 -18.90625 7.78125 -18.148438 7.5 -17.234375 C 7.226562 -16.328125 7.066406 -15.25 7.015625 -14 C 7.398438 -14.34375 7.859375 -14.644531 8.390625 -14.90625 C 8.816406 -15.144531 9.347656 -15.359375 9.984375 -15.546875 C 10.617188 -15.742188 11.332031 -15.84375 12.125 -15.84375 C 13.28125 -15.84375 14.347656 -15.632812 15.328125 -15.21875 C 16.316406 -14.8125 17.164062 -14.25 17.875 -13.53125 C 18.582031 -12.8125 19.140625 -11.945312 19.546875 -10.9375 C 19.953125 -9.9375 20.15625 -8.832031 20.15625 -7.625 C 20.15625 -6.457031 19.945312 -5.375 19.53125 -4.375 C 19.113281 -3.375 18.53125 -2.507812 17.78125 -1.78125 C 17.039062 -1.050781 16.144531 -0.476562 15.09375 -0.0625 C 14.050781 0.34375 12.921875 0.546875 11.703125 0.546875 Z M 11.703125 -3.953125 C 12.128906 -3.953125 12.535156 -4.039062 12.921875 -4.21875 C 13.304688 -4.40625 13.648438 -4.671875 13.953125 -5.015625 C 14.253906 -5.367188 14.492188 -5.78125 14.671875 -6.25 C 14.847656 -6.71875 14.9375 -7.238281 14.9375 -7.8125 C 14.9375 -8.96875 14.59375 -9.882812 13.90625 -10.5625 C 13.226562 -11.25 12.273438 -11.59375 11.046875 -11.59375 C 10.421875 -11.59375 9.875 -11.5 9.40625 -11.3125 C 8.945312 -11.132812 8.546875 -10.941406 8.203125 -10.734375 C 7.816406 -10.460938 7.484375 -10.1875 7.203125 -9.90625 C 7.390625 -7.882812 7.894531 -6.382812 8.71875 -5.40625 C 9.550781 -4.4375 10.546875 -3.953125 11.703125 -3.953125 Z M 11.703125 -3.953125 "/></g></g><g style="fill:#edf4c2;fill-opacity:1;"><g transform="translate(195.137439, 265.168123)"><path style="stroke:none" d="M 12.234375 0.546875 C 10.753906 0.546875 9.375 0.269531 8.09375 -0.28125 C 6.820312 -0.832031 5.71875 -1.660156 4.78125 -2.765625 C 3.851562 -3.867188 3.125 -5.242188 2.59375 -6.890625 C 2.0625 -8.535156 1.796875 -10.4375 1.796875 -12.59375 C 1.796875 -14.757812 2.0625 -16.660156 2.59375 -18.296875 C 3.125 -19.941406 3.851562 -21.3125 4.78125 -22.40625 C 5.71875 -23.5 6.820312 -24.328125 8.09375 -24.890625 C 9.375 -25.453125 10.753906 -25.734375 12.234375 -25.734375 C 13.722656 -25.734375 15.101562 -25.453125 16.375 -24.890625 C 17.644531 -24.328125 18.75 -23.5 19.6875 -22.40625 C 20.625 -21.3125 21.359375 -19.941406 21.890625 -18.296875 C 22.421875 -16.660156 22.6875 -14.757812 22.6875 -12.59375 C 22.6875 -10.4375 22.421875 -8.535156 21.890625 -6.890625 C 21.359375 -5.242188 20.625 -3.867188 19.6875 -2.765625 C 18.75 -1.660156 17.644531 -0.832031 16.375 -0.28125 C 15.101562 0.269531 13.722656 0.546875 12.234375 0.546875 Z M 12.234375 -3.921875 C 12.890625 -3.921875 13.519531 -4.082031 14.125 -4.40625 C 14.738281 -4.726562 15.285156 -5.242188 15.765625 -5.953125 C 16.242188 -6.660156 16.628906 -7.5625 16.921875 -8.65625 C 17.210938 -9.75 17.359375 -11.0625 17.359375 -12.59375 C 17.359375 -14.113281 17.210938 -15.414062 16.921875 -16.5 C 16.628906 -17.59375 16.242188 -18.492188 15.765625 -19.203125 C 15.285156 -19.910156 14.738281 -20.425781 14.125 -20.75 C 13.519531 -21.070312 12.890625 -21.234375 12.234375 -21.234375 C 11.585938 -21.234375 10.953125 -21.070312 10.328125 -20.75 C 9.703125 -20.425781 9.148438 -19.910156 8.671875 -19.203125 C 8.191406 -18.492188 7.804688 -17.59375 7.515625 -16.5 C 7.234375 -15.414062 7.09375 -14.113281 7.09375 -12.59375 C 7.09375 -11.0625 7.234375 -9.75 7.515625 -8.65625 C 7.804688 -7.5625 8.191406 -6.660156 8.671875 -5.953125 C 9.148438 -5.242188 9.703125 -4.726562 10.328125 -4.40625 C 10.953125 -4.082031 11.585938 -3.921875 12.234375 -3.921875 Z M 12.234375 -3.921875 "/></g></g></g></svg>